# xmcd
#
# Track frame offsets: 
#        150
#        14721
#        28308
#        41223
#        56592
#        70137
#        83303
#        99446
#        115254
#        128942
#        143230
#        157848
#        173710
#        187615
#
# Disc length: 2749 seconds
#
# Revision: 4
# Processed by: cddbd v1.5.2PL0 Copyright (c) Steve Scherf et al.
# Submitted via: ExactAudioCopy v1.0b1
#
DISCID=b30abb0e
DTITLE=A-TEENS - New Arrival (Stockholm Rec., 018 358-2)
DYEAR=2003
DGENRE=Pop
TTITLE0=Floorfiller
TTITLE1=Have A Little Faith In Me
TTITLE2=Shame Shame Shame
TTITLE3=Let  Your Heart Do All The Talking
TTITLE4=A Perfect Match
TTITLE5=The Letter
TTITLE6=Cross My Heart
TTITLE7=In The Blink Of An Eye
TTITLE8=School's Out (feat. Alice Cooper)
TTITLE9=Closer To Perfection
TTITLE10=Shangri La
TTITLE11=One Night In Bangkok
TTITLE12=Can't Help Falling In Love (Bonus Track)
TTITLE13=Heartbreak Lullaby (Ballad Version, Bonus Track)
EXTD=YEAR: 2003
EXTT0=
EXTT1=
EXTT2=
EXTT3=
EXTT4=
EXTT5=
EXTT6=
EXTT7=
EXTT8=
EXTT9=
EXTT10=
EXTT11=
EXTT12=
EXTT13=
PLAYORDER=
